<svg width="900" height="1080" viewBox="0 0 900 1080" fill="none" xmlns="http://www.w3.org/2000/svg">
<rect width="900" height="1080" fill="#0F0908"/>
<text x="450" y="88" text-anchor="middle" fill="#F0CF9E" font-size="40" font-family="Georgia, serif">Heritage Noir Suit</text>
<rect x="120" y="130" width="660" height="860" rx="40" fill="#17100D" stroke="#D8A455" stroke-opacity="0.18"/>
<ellipse cx="450" cy="270" rx="80" ry="92" fill="#CA9A6D"/>
<path d="M350 395C375 338 525 338 550 395L612 585H510L450 470L390 585H288L350 395Z" fill="#171717"/>
<path d="M398 415H502L450 468L398 415Z" fill="#2C2C2C"/>
<path d="M378 585H522V735H378V585Z" fill="#171717"/>
<path d="M378 735L344 960H430L450 735H378Z" fill="#111111"/>
<path d="M522 735L450 735L470 960H556L522 735Z" fill="#111111"/>
<path d="M330 455L280 630H332L392 495L330 455Z" fill="#222"/>
<path d="M570 455L508 495L568 630H620L570 455Z" fill="#222"/>
<path d="M450 585V735" stroke="#D8A455" stroke-width="4"/>
<text x="450" y="1030" text-anchor="middle" fill="#D8C3AC" font-size="24" font-family="Arial">Tailored occasion suit with premium editorial finish</text>
</svg>
