<svg width="900" height="1080" viewBox="0 0 900 1080" fill="none" xmlns="http://www.w3.org/2000/svg">
<rect width="900" height="1080" fill="#0F0908"/>
<text x="450" y="88" text-anchor="middle" fill="#F0CF9E" font-size="40" font-family="Georgia, serif">Ivory Crown Set</text>
<rect x="120" y="130" width="660" height="860" rx="40" fill="#17100D" stroke="#D8A455" stroke-opacity="0.18"/>
<ellipse cx="450" cy="270" rx="80" ry="92" fill="#CA9A6D"/>
<path d="M360 385C382 340 518 340 540 385L570 520H330L360 385Z" fill="#EEE4D6"/>
<path d="M350 520H550V720H350V520Z" fill="#EEE4D6"/>
<path d="M350 720L320 960H405L432 720H350Z" fill="#DED0BF"/>
<path d="M550 720L468 720L495 960H580L550 720Z" fill="#DED0BF"/>
<path d="M408 400C418 430 482 430 492 400" stroke="#C9B195" stroke-width="4"/>
<circle cx="450" cy="615" r="16" fill="#D8A455"/>
<text x="450" y="1030" text-anchor="middle" fill="#D8C3AC" font-size="24" font-family="Arial">Premium two-piece concept for polished luxury styling</text>
</svg>
