<svg width="900" height="1080" viewBox="0 0 900 1080" fill="none" xmlns="http://www.w3.org/2000/svg"><rect width="900" height="1080" fill="#F6FBF8"/><text x="450" y="84" text-anchor="middle" fill="#51352B" font-size="40" font-family="Georgia, serif">Emerald Muse Dress</text><rect x="120" y="128" width="660" height="860" rx="40" fill="#FFFFFF" stroke="#D8C0B2"/><ellipse cx="450" cy="270" rx="80" ry="92" fill="#D6AA85"/><path d="M370 380C395 332 505 332 530 380L622 595C650 660 610 730 536 730H364C290 730 250 660 278 595L370 380Z" fill="#2D7A63"/><path d="M352 630C352 630 330 860 300 960H387L425 730H475L513 960H600C570 860 548 630 548 630H352Z" fill="#225F4D"/></svg>