<svg width="900" height="1080" viewBox="0 0 900 1080" fill="none" xmlns="http://www.w3.org/2000/svg"><rect width="900" height="1080" fill="#FCF3EC"/><text x="450" y="84" text-anchor="middle" fill="#51352B" font-size="40" font-family="Georgia, serif">Cream Cropped Jacket</text><rect x="120" y="128" width="660" height="860" rx="40" fill="#FFFFFF" stroke="#D8C0B2"/><ellipse cx="450" cy="270" rx="80" ry="92" fill="#D6AA85"/><path d="M350 395C375 338 525 338 550 395L612 560H510L450 470L390 560H288L350 395Z" fill="#F0E7DD"/><path d="M398 415H502L450 468L398 415Z" fill="#D8CEC1"/><path d="M388 560H512V675H388V560Z" fill="#F0E7DD"/><path d="M388 675L360 860H438L450 675H388Z" fill="#DED4C7"/><path d="M512 675L450 675L462 860H540L512 675Z" fill="#DED4C7"/></svg>