<svg width="900" height="1080" viewBox="0 0 900 1080" fill="none" xmlns="http://www.w3.org/2000/svg"><rect width="900" height="1080" fill="#FCF3EC"/><text x="450" y="84" text-anchor="middle" fill="#51352B" font-size="40" font-family="Georgia, serif">Noir Statement Jacket</text><rect x="120" y="128" width="660" height="860" rx="40" fill="#FFFFFF" stroke="#D8C0B2"/><ellipse cx="450" cy="270" rx="80" ry="92" fill="#D6AA85"/><path d="M350 395C375 338 525 338 550 395L612 585H510L450 470L390 585H288L350 395Z" fill="#171717"/><path d="M398 415H502L450 468L398 415Z" fill="#2C2C2C"/><path d="M378 585H522V735H378V585Z" fill="#171717"/><path d="M378 735L344 960H430L450 735H378Z" fill="#111111"/><path d="M522 735L450 735L470 960H556L522 735Z" fill="#111111"/></svg>