<svg width="720" height="720" viewBox="0 0 720 720" fill="none" xmlns="http://www.w3.org/2000/svg"><rect width="720" height="720" rx="84" fill="#FDF7F3"/><rect x="46" y="46" width="628" height="628" rx="56" stroke="#B88445" stroke-opacity="0.34" stroke-width="2"/><circle cx="360" cy="250" r="150" stroke="#B88445" stroke-width="5"/><path d="M280 340V175H320V310H410V340H280Z" fill="#51352B"/><path d="M414 176C438 176 456 181 469 191C482 201 488 214 488 231C488 245 484 256 476 264C468 272 457 277 443 280C459 283 471 290 480 300C490 311 495 324 495 340C495 353 492 364 487 373C482 382 474 390 464 396C454 402 442 407 430 410C417 413 403 414 388 414H338V176H414Z" fill="#B0657F"/><path d="M222 498C267 462 313 444 360 444C407 444 453 462 498 498" stroke="#B88445" stroke-width="18" stroke-linecap="round"/><circle cx="360" cy="498" r="14" fill="#B0657F"/><text x="360" y="570" text-anchor="middle" fill="#51352B" font-size="66" font-family="Georgia, serif" letter-spacing="7">CHIDERA</text><text x="360" y="624" text-anchor="middle" fill="#B88445" font-size="28" font-family="Arial, sans-serif" letter-spacing="10">LUXURY</text></svg>